<?xml version="1.0" standalone="no"?>
<!DOCTYPE svg PUBLIC "-//W3C//DTD SVG 20010904//EN"
 "http://www.w3.org/TR/2001/REC-SVG-20010904/DTD/svg10.dtd">
<svg version="1.0" xmlns="http://www.w3.org/2000/svg"
 width="360.000000pt" height="200.000000pt" viewBox="0 0 360.000000 200.000000"
 preserveAspectRatio="xMidYMid meet">

<g transform="translate(0.000000,200.000000) scale(0.100000,-0.100000)"
fill="#000000" stroke="none">
<path d="M1760 1522 c-74 -3 -75 -4 -102 -43 -25 -35 -32 -39 -71 -39 -56 0
-159 -50 -192 -94 -36 -47 -31 -49 14 -6 44 42 114 70 174 70 38 0 39 -1 34
-29 -16 -80 -15 -83 10 -28 l26 57 73 0 73 0 37 -47 c21 -27 51 -63 68 -80
l30 -33 175 1 c202 2 421 14 331 19 -30 1 -154 5 -275 9 l-219 6 -49 60 -48
60 108 3 c118 3 138 -2 223 -57 86 -56 89 -56 29 1 -71 68 -116 90 -202 96
-67 5 -68 5 -88 43 -17 34 -23 39 -52 37 -17 -1 -66 -4 -107 -6z m138 -53 c23
-18 21 -18 -102 -21 -70 -2 -126 -1 -126 2 0 3 7 16 16 29 16 22 20 22 103 15
59 -4 93 -12 109 -25z"/>
<path d="M1180 1271 c-45 -6 -45 -6 25 -14 87 -9 311 -9 344 0 23 6 23 7 5 14
-22 9 -308 9 -374 0z"/>
<path d="M2432 1216 c-40 -7 -77 -17 -83 -23 -20 -20 -13 -65 12 -86 35 -28
155 -20 181 13 20 25 23 62 8 91 -12 21 -16 22 -118 5z m108 -40 c0 -42 -13
-53 -75 -61 -62 -7 -100 10 -100 45 0 22 6 26 55 36 30 7 70 12 88 13 30 1 32
-1 32 -33z"/>
<path d="M885 1201 l-80 -6 55 -7 c75 -11 462 -10 478 1 9 5 1 10 -25 14 -44
8 -310 6 -428 -2z"/>
<path d="M1583 1181 c-251 -12 -118 -25 265 -26 34 0 62 0 62 0 0 -1 -9 -18
-20 -40 -11 -22 -20 -53 -20 -70 l1 -30 13 31 c33 74 117 97 176 47 18 -14 36
-36 41 -47 7 -16 8 -10 5 23 -3 32 -13 52 -35 75 -26 26 -41 31 -103 37 -80 8
-198 8 -385 0z"/>
<path d="M2165 1169 c-4 -13 -2 -27 7 -35 15 -15 104 -35 124 -27 17 6 27 38
19 63 -6 17 -15 20 -75 20 -61 0 -69 -2 -75 -21z m123 -21 c-2 -17 -11 -24
-34 -26 -39 -4 -84 13 -84 33 0 12 13 15 61 15 57 0 60 -1 57 -22z"/>
<path d="M1332 1127 c-12 -13 -22 -34 -22 -46 l0 -24 21 27 c11 14 29 26 39
26 10 0 28 -12 39 -26 19 -24 21 -25 21 -7 0 27 -37 73 -59 73 -10 0 -27 -10
-39 -23z"/>
<path d="M2022 911 c-21 -13 -34 -134 -36 -338 -1 -201 3 -224 41 -208 10 4
27 7 39 6 26 -2 34 34 34 151 l0 78 63 -2 c81 -2 129 20 162 77 48 80 26 176
-50 220 -37 22 -53 25 -141 25 -54 0 -105 -4 -112 -9z m210 -136 c7 -16 7 -29
-1 -44 -10 -18 -21 -21 -71 -21 l-60 0 0 43 c0 24 2 46 4 48 2 2 30 2 61 1 47
-3 58 -8 67 -27z"/>
<path d="M2480 902 c-56 -31 -80 -74 -80 -147 0 -56 -3 -65 -25 -79 -14 -9
-25 -23 -25 -31 0 -19 21 -58 38 -68 8 -5 12 -38 12 -101 0 -72 4 -97 15 -106
13 -11 18 -10 28 3 7 8 21 17 32 19 11 2 21 12 22 23 1 11 5 50 8 88 l7 67 54
0 54 0 0 -67 c0 -103 37 -178 59 -120 5 13 16 29 25 36 12 10 16 31 16 78 0
55 3 68 22 83 19 15 20 20 9 34 -8 9 -11 19 -8 23 4 3 1 15 -5 27 -6 11 -10
44 -9 71 2 59 -29 128 -71 159 -40 29 -132 33 -178 8z m124 -108 c10 -10 16
-33 16 -65 l0 -49 -55 0 -55 0 0 55 c0 41 4 56 18 64 25 15 58 13 76 -5z"/>
<path d="M2763 908 c-39 -54 -38 -62 15 -129 28 -35 64 -75 80 -89 29 -26 29
-26 20 -95 -11 -83 -7 -210 8 -225 6 -6 29 -8 56 -4 57 8 58 10 58 170 l0 122
91 86 c79 75 90 90 85 112 -4 15 -20 31 -40 41 -34 16 -35 16 -78 -17 -24 -19
-57 -47 -75 -63 l-31 -29 -30 20 c-16 12 -46 42 -66 67 -38 46 -74 58 -93 33z"/>
</g>
</svg>
